<svg xmlns="http://www.w3.org/2000/svg" viewBox="0 0 803.39 687"><defs><style>.a{fill:#fff;}</style></defs><title>portrait-white</title><path class="a" d="M76.82,540a42.45,42.45,0,0,1-2.75,15.44,36.25,36.25,0,0,1-7.79,12.3,35.41,35.41,0,0,1-12.11,8.1,41,41,0,0,1-15.73,2.91,40.85,40.85,0,0,1-15.68-2.91,35.63,35.63,0,0,1-12.14-8.1,36.21,36.21,0,0,1-7.84-12.3,44.27,44.27,0,0,1,0-30.88,36.21,36.21,0,0,1,7.84-12.3,35.63,35.63,0,0,1,12.14-8.1,40.85,40.85,0,0,1,15.68-2.91,42.61,42.61,0,0,1,10.85,1.34,38.46,38.46,0,0,1,9.34,3.77,34.37,34.37,0,0,1,7.62,5.93A35.93,35.93,0,0,1,72,520a38,38,0,0,1,3.59,9.33A44.52,44.52,0,0,1,76.82,540ZM62.4,540a34.71,34.71,0,0,0-1.68-11.19A24,24,0,0,0,56,520.35a20.48,20.48,0,0,0-7.52-5.3,26,26,0,0,0-10-1.83,25.93,25.93,0,0,0-10,1.83,20.67,20.67,0,0,0-7.55,5.3,23.78,23.78,0,0,0-4.8,8.42,38.14,38.14,0,0,0,0,22.39,23.56,23.56,0,0,0,4.8,8.39,20.84,20.84,0,0,0,7.55,5.27,25.93,25.93,0,0,0,10,1.83,26,26,0,0,0,10-1.83A20.64,20.64,0,0,0,56,559.55a23.81,23.81,0,0,0,4.77-8.39A34.82,34.82,0,0,0,62.4,540Z"/><path class="a" d="M98.58,531.41a28.05,28.05,0,0,1,7.5-6,20.23,20.23,0,0,1,9.86-2.3,17.68,17.68,0,0,1,8,1.83,18.13,18.13,0,0,1,6.29,5.33,25.4,25.4,0,0,1,4.09,8.59,43.36,43.36,0,0,1,1.44,11.72,37,37,0,0,1-1.62,11.17,27.47,27.47,0,0,1-4.64,8.92,21.57,21.57,0,0,1-7.29,5.9,21.29,21.29,0,0,1-9.57,2.12,19.21,19.21,0,0,1-7.71-1.39,18.83,18.83,0,0,1-5.72-3.85v22h-13V524.07h7.92a3.18,3.18,0,0,1,3.3,2.36Zm.68,32.52a12.74,12.74,0,0,0,4.8,3.77,14.19,14.19,0,0,0,5.64,1.1,12.28,12.28,0,0,0,5.29-1.1,10.26,10.26,0,0,0,4-3.36,16.65,16.65,0,0,0,2.54-5.68,32.74,32.74,0,0,0,.89-8.11,35.73,35.73,0,0,0-.76-8,15.31,15.31,0,0,0-2.18-5.32,8.56,8.56,0,0,0-3.43-3,10.73,10.73,0,0,0-4.59-1,13.07,13.07,0,0,0-6.87,1.71,20.61,20.61,0,0,0-5.35,4.8Z"/><path class="a" d="M155.84,552.6a25.49,25.49,0,0,0,1.47,7.16,14.61,14.61,0,0,0,3,5,12,12,0,0,0,4.49,2.94,16.42,16.42,0,0,0,5.74,1,17.82,17.82,0,0,0,5.43-.74,26.06,26.06,0,0,0,4-1.62c1.14-.6,2.13-1.14,3-1.63a5,5,0,0,1,2.49-.73,2.68,2.68,0,0,1,2.41,1.2l3.72,4.72a21.35,21.35,0,0,1-4.82,4.22,26.69,26.69,0,0,1-5.58,2.73,30.71,30.71,0,0,1-5.93,1.44,42.4,42.4,0,0,1-5.85.42A28.75,28.75,0,0,1,159,576.8a23.34,23.34,0,0,1-8.39-5.51,25.69,25.69,0,0,1-5.61-9,34.94,34.94,0,0,1-2.05-12.45,29.8,29.8,0,0,1,1.79-10.36,24.83,24.83,0,0,1,5.11-8.44,24.16,24.16,0,0,1,8.13-5.69,26.72,26.72,0,0,1,10.83-2.1,26.36,26.36,0,0,1,9.38,1.63,20.47,20.47,0,0,1,7.4,4.75,22.16,22.16,0,0,1,4.85,7.65,28.59,28.59,0,0,1,1.75,10.36,8.39,8.39,0,0,1-.63,4,2.6,2.6,0,0,1-2.41,1Zm24.7-7.81a15.69,15.69,0,0,0-.71-4.75,11.38,11.38,0,0,0-2.12-3.91,9.85,9.85,0,0,0-3.59-2.64,12.28,12.28,0,0,0-5.06-1q-5.61,0-8.84,3.19t-4.11,9.08Z"/><path class="a" d="M214,530.68a34.85,34.85,0,0,1,3.43-3,21.12,21.12,0,0,1,3.83-2.36,20.83,20.83,0,0,1,4.32-1.52,21.55,21.55,0,0,1,5-.56,19.22,19.22,0,0,1,7.81,1.5,15.49,15.49,0,0,1,5.69,4.19,18.34,18.34,0,0,1,3.46,6.45,27.34,27.34,0,0,1,1.18,8.26v34.24H235.81V543.63c0-3.28-.75-5.83-2.26-7.63s-3.79-2.7-6.86-2.7a13.56,13.56,0,0,0-6.3,1.52,22.69,22.69,0,0,0-5.56,4.15v38.9h-13v-53.8h7.92a3.2,3.2,0,0,1,3.31,2.36Z"/><path class="a" d="M302.67,533.83H306a8.68,8.68,0,0,0,3.3-.55,5.64,5.64,0,0,0,2.26-1.76L332.45,505a7.47,7.47,0,0,1,2.75-2.33,8.79,8.79,0,0,1,3.65-.66H351l-25.53,31.51a14.26,14.26,0,0,1-4.67,4.1,10.63,10.63,0,0,1,3.12,1.75,13.86,13.86,0,0,1,2.65,3l26.32,35.5H340.47a7.8,7.8,0,0,1-3.75-.7,6,6,0,0,1-2.07-2.07l-21.44-28a5.75,5.75,0,0,0-2.31-2,9.81,9.81,0,0,0-3.78-.58h-4.45v33.35H288.56V502.05h14.11Z"/><path class="a" d="M370.52,530.68a34.85,34.85,0,0,1,3.43-3,21.21,21.21,0,0,1,8.16-3.88,21.4,21.4,0,0,1,5-.56,19.19,19.19,0,0,1,7.81,1.5,15.4,15.4,0,0,1,5.69,4.19,18.34,18.34,0,0,1,3.46,6.45,27.34,27.34,0,0,1,1.18,8.26v34.24H392.33V543.63c0-3.28-.75-5.83-2.25-7.63s-3.8-2.7-6.87-2.7a13.49,13.49,0,0,0-6.29,1.52,22.69,22.69,0,0,0-5.56,4.15v38.9H358.41v-53.8h7.91a3.2,3.2,0,0,1,3.31,2.36Z"/><path class="a" d="M441.36,523.23a29.39,29.39,0,0,1,10.88,1.94,23.84,23.84,0,0,1,8.39,5.51,24.15,24.15,0,0,1,5.38,8.71,36.14,36.14,0,0,1,0,23,24.63,24.63,0,0,1-5.38,8.76,23.42,23.42,0,0,1-8.39,5.56,29.39,29.39,0,0,1-10.88,1.94,29.78,29.78,0,0,1-11-1.94,23.42,23.42,0,0,1-8.41-5.56,25,25,0,0,1-5.41-8.76,35.61,35.61,0,0,1,0-23,24.49,24.49,0,0,1,5.41-8.71,23.83,23.83,0,0,1,8.41-5.51A29.78,29.78,0,0,1,441.36,523.23Zm0,45.47q6.72,0,9.94-4.51T454.52,551q0-8.7-3.22-13.26t-9.94-4.56q-6.81,0-10.09,4.58T428,551q0,8.65,3.28,13.19T441.36,568.7Z"/><path class="a" d="M553.73,524.07l-17.09,53.8H526.26c-1.19,0-2-.76-2.47-2.3l-9.65-31.1c-.31-1.05-.6-2.09-.86-3.12s-.48-2.07-.66-3.12c-.21,1-.44,2.11-.71,3.17s-.55,2.13-.86,3.18l-9.81,31a2.7,2.7,0,0,1-2.77,2.3h-10l-17-53.8h10.33a4.19,4.19,0,0,1,2.41.68,3.18,3.18,0,0,1,1.31,1.74l7.71,28.73q.58,2.35,1,4.62c.3,1.5.55,3,.76,4.5.39-1.5.8-3,1.24-4.5s.9-3.05,1.39-4.62l8.91-28.84a3.28,3.28,0,0,1,1.23-1.73A3.67,3.67,0,0,1,510,524h5.72a4,4,0,0,1,2.33.68,3.17,3.17,0,0,1,1.28,1.73L528,555.22c.45,1.57.88,3.12,1.28,4.64s.8,3,1.18,4.54a87.74,87.74,0,0,1,1.94-9.18l7.92-28.73a3.55,3.55,0,0,1,1.31-1.74,3.78,3.78,0,0,1,2.26-.68Z"/><path class="a" d="M574.18,500v77.92H561.23V500Z"/><path class="a" d="M597.1,552.6a25.49,25.49,0,0,0,1.47,7.16,14.46,14.46,0,0,0,3,5,12,12,0,0,0,4.48,2.94,16.42,16.42,0,0,0,5.74,1,17.78,17.78,0,0,0,5.43-.74,25.65,25.65,0,0,0,4-1.62c1.14-.6,2.14-1.14,3-1.63a5,5,0,0,1,2.49-.73,2.7,2.7,0,0,1,2.42,1.2l3.72,4.72a21.18,21.18,0,0,1-4.83,4.22,26.69,26.69,0,0,1-5.58,2.73,30.53,30.53,0,0,1-5.93,1.44,42.26,42.26,0,0,1-5.84.42,28.8,28.8,0,0,1-10.44-1.86,23.43,23.43,0,0,1-8.39-5.51,26,26,0,0,1-5.61-9,34.94,34.94,0,0,1-2-12.45A29.8,29.8,0,0,1,586,539.46a25,25,0,0,1,5.11-8.44,24.16,24.16,0,0,1,8.13-5.69,26.76,26.76,0,0,1,10.83-2.1,26.36,26.36,0,0,1,9.38,1.63,20.39,20.39,0,0,1,7.4,4.75,22,22,0,0,1,4.85,7.65,28.59,28.59,0,0,1,1.76,10.36,8.39,8.39,0,0,1-.63,4,2.61,2.61,0,0,1-2.41,1Zm24.7-7.81a15.69,15.69,0,0,0-.71-4.75,11.24,11.24,0,0,0-2.13-3.91,9.85,9.85,0,0,0-3.59-2.64,12.28,12.28,0,0,0-5.06-1q-5.61,0-8.83,3.19a15.7,15.7,0,0,0-4.12,9.08Z"/><path class="a" d="M689.86,500v77.92h-7.92a3,3,0,0,1-3.25-2.36l-1.1-5.19a27,27,0,0,1-7.47,6,20.21,20.21,0,0,1-9.84,2.31,17.85,17.85,0,0,1-8.07-1.83,18,18,0,0,1-6.32-5.33,25.38,25.38,0,0,1-4.09-8.62,43.65,43.65,0,0,1-1.44-11.75A36.86,36.86,0,0,1,642,540a27.19,27.19,0,0,1,4.67-8.91,21.84,21.84,0,0,1,7.29-5.9,21.1,21.1,0,0,1,9.54-2.12,19,19,0,0,1,7.71,1.41,19.92,19.92,0,0,1,5.72,3.83V500Zm-13,37.86a12.74,12.74,0,0,0-4.8-3.77,14,14,0,0,0-5.59-1.1,12.28,12.28,0,0,0-5.29,1.1,10.63,10.63,0,0,0-4,3.33,16,16,0,0,0-2.57,5.66,32.71,32.71,0,0,0-.89,8.1,35.82,35.82,0,0,0,.76,8,15.73,15.73,0,0,0,2.18,5.35,8.3,8.3,0,0,0,3.46,3,11,11,0,0,0,4.56.91,13.25,13.25,0,0,0,6.87-1.68,20.11,20.11,0,0,0,5.35-4.77Z"/><path class="a" d="M749.85,525.91v4.82c0,1.54-.93,2.49-2.78,2.83l-4.83.9a16.24,16.24,0,0,1,1.1,6.08,15.78,15.78,0,0,1-6,12.69,20.88,20.88,0,0,1-6.68,3.49,28.81,28.81,0,0,1-11.36,1.07q-1.47-.15-2.88-.42c-1.68,1-2.52,2.15-2.52,3.41a2.52,2.52,0,0,0,1.5,2.39,12.36,12.36,0,0,0,4,1.07,54.88,54.88,0,0,0,5.61.39c2.1.06,4.24.17,6.45.34a54.13,54.13,0,0,1,6.45.92,19.28,19.28,0,0,1,5.61,2.07,11.09,11.09,0,0,1,4,3.86,11.86,11.86,0,0,1,1.49,6.26,14.79,14.79,0,0,1-1.75,6.93,18.79,18.79,0,0,1-5.09,6,26.38,26.38,0,0,1-8.18,4.22,35.14,35.14,0,0,1-11,1.6,41.91,41.91,0,0,1-10.59-1.18,25,25,0,0,1-7.5-3.14,13.65,13.65,0,0,1-4.46-4.54,10.6,10.6,0,0,1-1.47-5.35,9.1,9.1,0,0,1,2.29-6.32,15.79,15.79,0,0,1,6.26-4.06,9,9,0,0,1-3.41-2.94,8.35,8.35,0,0,1-1.26-4.82,7.55,7.55,0,0,1,.45-2.49,10.59,10.59,0,0,1,1.31-2.54,12.4,12.4,0,0,1,2.18-2.39,15.15,15.15,0,0,1,3.09-2,16.88,16.88,0,0,1-6.42-5.87,15.67,15.67,0,0,1-2.34-8.6A15.8,15.8,0,0,1,707,527.82a20.32,20.32,0,0,1,6.76-3.48,30.43,30.43,0,0,1,15-.5,22,22,0,0,1,5.56,2.07ZM737,580.29a3.58,3.58,0,0,0-1-2.57,6.14,6.14,0,0,0-2.57-1.55,18.43,18.43,0,0,0-3.8-.81c-1.45-.18-3-.31-4.61-.4l-5-.23c-1.73-.07-3.41-.21-5.06-.42a12.29,12.29,0,0,0-3.49,2.83,5.76,5.76,0,0,0-1.33,3.78,5.13,5.13,0,0,0,.71,2.64,6,6,0,0,0,2.25,2.13,13.75,13.75,0,0,0,4,1.39,31.21,31.21,0,0,0,6,.49,30.58,30.58,0,0,0,6.24-.55,14.76,14.76,0,0,0,4.33-1.52,6.5,6.5,0,0,0,2.49-2.3A5.68,5.68,0,0,0,737,580.29Zm-14.63-30.63a12.09,12.09,0,0,0,4.19-.65,8.18,8.18,0,0,0,3-1.81,7.57,7.57,0,0,0,1.79-2.78,10.21,10.21,0,0,0,.6-3.57,8.46,8.46,0,0,0-2.39-6.32q-2.38-2.32-7.15-2.33c-3.19,0-5.57.78-7.16,2.33a8.46,8.46,0,0,0-2.39,6.32,10.13,10.13,0,0,0,.6,3.52,7.73,7.73,0,0,0,1.79,2.8,7.94,7.94,0,0,0,3,1.84A12.09,12.09,0,0,0,722.32,549.66Z"/><path class="a" d="M767.05,552.6a25.49,25.49,0,0,0,1.47,7.16,14.46,14.46,0,0,0,3,5,12,12,0,0,0,4.48,2.94,16.42,16.42,0,0,0,5.74,1,17.78,17.78,0,0,0,5.43-.74,25.65,25.65,0,0,0,4-1.62c1.14-.6,2.14-1.14,3-1.63a5,5,0,0,1,2.49-.73,2.7,2.7,0,0,1,2.42,1.2l3.72,4.72a21.18,21.18,0,0,1-4.83,4.22,26.69,26.69,0,0,1-5.58,2.73,30.53,30.53,0,0,1-5.93,1.44,42.26,42.26,0,0,1-5.84.42,28.8,28.8,0,0,1-10.44-1.86,23.43,23.43,0,0,1-8.39-5.51,26,26,0,0,1-5.61-9,34.94,34.94,0,0,1-2-12.45,29.8,29.8,0,0,1,1.78-10.36A25,25,0,0,1,761,531a24.16,24.16,0,0,1,8.13-5.69,26.76,26.76,0,0,1,10.83-2.1,26.46,26.46,0,0,1,9.39,1.63,20.43,20.43,0,0,1,7.39,4.75,22,22,0,0,1,4.85,7.65,28.59,28.59,0,0,1,1.76,10.36,8.39,8.39,0,0,1-.63,4,2.61,2.61,0,0,1-2.41,1Zm24.7-7.81A15.69,15.69,0,0,0,791,540a11.24,11.24,0,0,0-2.13-3.91,9.85,9.85,0,0,0-3.59-2.64,12.28,12.28,0,0,0-5.06-1q-5.61,0-8.83,3.19a15.7,15.7,0,0,0-4.12,9.08Z"/><path class="a" d="M183.13,626.64v22.7h27.19v8.16H183.13v28.74H173V618.47h42v8.17Z"/><path class="a" d="M240.8,637.54a25.52,25.52,0,0,1,9.56,1.72,19.9,19.9,0,0,1,7.27,5,22,22,0,0,1,4.6,7.79,33.27,33.27,0,0,1,0,20.45,21.73,21.73,0,0,1-4.6,7.79,20,20,0,0,1-7.27,4.93,27.39,27.39,0,0,1-19.16,0,20.12,20.12,0,0,1-7.29-4.93,22,22,0,0,1-4.65-7.79,32.89,32.89,0,0,1,0-20.45,22.24,22.24,0,0,1,4.65-7.79,20.06,20.06,0,0,1,7.29-5A25.65,25.65,0,0,1,240.8,637.54Zm0,42.19q6.81,0,10.15-4.58t3.35-12.88q0-8.31-3.35-12.91t-10.15-4.6q-6.88,0-10.26,4.6t-3.37,12.91q0,8.31,3.37,12.88T240.8,679.73Z"/><path class="a" d="M314,638.3v47.94h-5.52A2.35,2.35,0,0,1,306,684.4l-.66-4.81a32.86,32.86,0,0,1-3.26,3,19.76,19.76,0,0,1-7.74,3.85,19.36,19.36,0,0,1-4.67.54,17.08,17.08,0,0,1-7-1.32,13.78,13.78,0,0,1-5-3.71,16,16,0,0,1-3.07-5.73,25,25,0,0,1-1-7.41V638.3h9.25v30.53q0,5.14,2.36,8c1.58,1.9,4,2.85,7.22,2.85A13.53,13.53,0,0,0,299,678a22.47,22.47,0,0,0,5.76-4.6V638.3Z"/><path class="a" d="M335.47,645a32.86,32.86,0,0,1,3.26-3,20.64,20.64,0,0,1,3.61-2.34,20,20,0,0,1,4.1-1.51,19.67,19.67,0,0,1,4.7-.54,17.15,17.15,0,0,1,7,1.32,13.87,13.87,0,0,1,5,3.71,16.07,16.07,0,0,1,3.06,5.73,24.71,24.71,0,0,1,1,7.41v30.53H358V655.71c0-3.43-.78-6.09-2.36-8s-4-2.85-7.22-2.85a13.66,13.66,0,0,0-6.63,1.67,22.13,22.13,0,0,0-5.73,4.56v35.15h-9.2V638.3h5.52a2.23,2.23,0,0,1,2.4,1.84Z"/><path class="a" d="M419.81,616.59v69.65h-5.57a2.25,2.25,0,0,1-2.41-1.84l-.8-5.52a25.4,25.4,0,0,1-7,5.83,18.06,18.06,0,0,1-9,2.2,16.92,16.92,0,0,1-7.44-1.61,15.59,15.59,0,0,1-5.68-4.7,22.26,22.26,0,0,1-3.64-7.66,39.41,39.41,0,0,1-1.27-10.53,33.2,33.2,0,0,1,1.42-9.91,23.76,23.76,0,0,1,4.1-7.93,18.8,18.8,0,0,1,15.15-7.17,16.21,16.21,0,0,1,12.84,5.43V616.59Zm-9.25,33.32a13,13,0,0,0-4.89-4.16,14.21,14.21,0,0,0-5.87-1.18,11.6,11.6,0,0,0-9.8,4.56q-3.47,4.54-3.47,13.28a33.73,33.73,0,0,0,.78,7.81,14.92,14.92,0,0,0,2.27,5.29,9,9,0,0,0,3.66,3,12,12,0,0,0,4.9,1,13,13,0,0,0,6.94-1.8,20.92,20.92,0,0,0,5.48-5.05Z"/><path class="a" d="M431.46,645a26.36,26.36,0,0,1,19-7.6,18.56,18.56,0,0,1,7.27,1.34,14.94,14.94,0,0,1,5.33,3.76,15.89,15.89,0,0,1,3.28,5.75,23.51,23.51,0,0,1,1.11,7.41v30.58h-4.1a3.9,3.9,0,0,1-2.08-.44,3.09,3.09,0,0,1-1.13-1.68l-1-4.2a39.39,39.39,0,0,1-3.63,3,24.16,24.16,0,0,1-3.75,2.22,19.73,19.73,0,0,1-4.18,1.39,23.93,23.93,0,0,1-4.91.47,17.55,17.55,0,0,1-5.3-.78,11.81,11.81,0,0,1-4.32-2.38,11.17,11.17,0,0,1-2.9-4,13.81,13.81,0,0,1-1.07-5.62,10.58,10.58,0,0,1,1.54-5.45,13.84,13.84,0,0,1,5-4.7,32.22,32.22,0,0,1,9.06-3.39,67.38,67.38,0,0,1,13.76-1.51v-3.5c0-3.61-.77-6.32-2.31-8.11s-3.81-2.69-6.8-2.69a14.86,14.86,0,0,0-5.07.75,18.85,18.85,0,0,0-3.54,1.68c-1,.61-1.86,1.17-2.6,1.67a4,4,0,0,1-2.29.76,2.67,2.67,0,0,1-1.63-.52,4.43,4.43,0,0,1-1.1-1.23Zm27,20a72,72,0,0,0-9.54.87,26.68,26.68,0,0,0-6.37,1.82,8.72,8.72,0,0,0-3.54,2.67,5.79,5.79,0,0,0-1.08,3.42,7.35,7.35,0,0,0,.59,3.09,5.72,5.72,0,0,0,1.6,2.12,6.43,6.43,0,0,0,2.39,1.21,11.19,11.19,0,0,0,3,.37,16.81,16.81,0,0,0,3.89-.42,15.33,15.33,0,0,0,3.33-1.2,16.34,16.34,0,0,0,3-1.92,26.61,26.61,0,0,0,2.79-2.59Z"/><path class="a" d="M524.67,686.24h-9.25V645.75H491.35v28.08a5.75,5.75,0,0,0,1.4,4.23,4.79,4.79,0,0,0,3.56,1.39,6.47,6.47,0,0,0,2.19-.33,9,9,0,0,0,1.58-.73c.44-.27.82-.51,1.14-.73a1.5,1.5,0,0,1,.85-.33,1.15,1.15,0,0,1,.73.21,2.76,2.76,0,0,1,.54.68l2.74,4.44a16.11,16.11,0,0,1-5.38,3.21,19,19,0,0,1-6.47,1.13q-5.81,0-8.94-3.26t-3.14-9.29v-28.7h-5.57a1.8,1.8,0,0,1-1.89-2V640l7.84-1.08,2-14.3a2.19,2.19,0,0,1,.73-1.25,2.09,2.09,0,0,1,1.39-.45h4.67v16.09h33.32Zm2.08-63a5.8,5.8,0,0,1-.52,2.43,6.72,6.72,0,0,1-1.39,2,6.49,6.49,0,0,1-4.51,1.87,6,6,0,0,1-2.41-.5,6.51,6.51,0,0,1-3.37-3.4,6.11,6.11,0,0,1-.5-2.43,6.44,6.44,0,0,1,1.87-4.55,6.54,6.54,0,0,1,2-1.37,6,6,0,0,1,2.41-.49,6.23,6.23,0,0,1,2.45.49,6.46,6.46,0,0,1,2.06,1.37,6.81,6.81,0,0,1,1.39,2.05A6.09,6.09,0,0,1,526.75,623.19Z"/><path class="a" d="M558.46,637.54a25.55,25.55,0,0,1,9.56,1.72,19.86,19.86,0,0,1,7.26,5,22,22,0,0,1,4.61,7.79,33.47,33.47,0,0,1,0,20.45,21.75,21.75,0,0,1-4.61,7.79,19.92,19.92,0,0,1-7.26,4.93,27.39,27.39,0,0,1-19.16,0,20.24,20.24,0,0,1-7.3-4.93,21.81,21.81,0,0,1-4.64-7.79,32.89,32.89,0,0,1,0-20.45,22.07,22.07,0,0,1,4.64-7.79,20.19,20.19,0,0,1,7.3-5A25.58,25.58,0,0,1,558.46,637.54Zm0,42.19q6.79,0,10.15-4.58T572,662.27q0-8.31-3.35-12.91t-10.15-4.6q-6.88,0-10.26,4.6t-3.38,12.91q0,8.31,3.38,12.88T558.46,679.73Z"/><path class="a" d="M600.37,645a32.77,32.77,0,0,1,3.25-3,21.41,21.41,0,0,1,3.61-2.34,20.31,20.31,0,0,1,4.11-1.51,19.58,19.58,0,0,1,4.69-.54,17.16,17.16,0,0,1,7,1.32,13.83,13.83,0,0,1,5,3.71,16.09,16.09,0,0,1,3.07,5.73,25,25,0,0,1,1,7.41v30.53h-9.25V655.71c0-3.43-.79-6.09-2.36-8s-4-2.85-7.22-2.85a13.66,13.66,0,0,0-6.63,1.67,22.17,22.17,0,0,0-5.74,4.56v35.15h-9.2V638.3h5.52a2.25,2.25,0,0,1,2.41,1.84Z"/><path class="a" d="M402,145.65a75.21,75.21,0,0,1,74.34,63.51l32.3-32.29L589.51,96,527,33.49l-80.85,80.85V0H357.69V160A75.46,75.46,0,0,1,402,145.65Zm56-19.38L527,57.34,565.66,96l-68.92,68.92-13.12,13.12A92.79,92.79,0,0,0,445,139.35ZM429.26,16.86v116a93.31,93.31,0,0,0-54.71.06V16.86Z"/><path class="a" d="M476.37,233A75.36,75.36,0,0,1,357.7,282.16v160h88.43V327.84L527,408.68l62.53-62.53L508.66,265.3Zm-47.1,94.83V425.3H374.56v-116a93.42,93.42,0,0,0,54.71.07Zm97.71,57-68.92-68.92L445,302.83a92.69,92.69,0,0,0,38.66-38.72l13.11,13.12,68.92,68.92Z"/><path class="a" d="M214.32,96l80.85,80.85H180.83V265.3H295.17l-80.85,80.85,62.53,62.53,64-64V265.43a75.51,75.51,0,0,1,0-88.69V97.47l-64-64Z"/></svg>