<svg width="636" height="78" viewBox="0 0 636 78" fill="none" xmlns="http://www.w3.org/2000/svg">
<path d="M118.904 61.0461C105.839 61.0461 96.9316 51.4785 96.9316 37.0942C96.9316 22.6438 105.839 13.0762 118.904 13.0762C132.035 13.0762 140.877 22.6438 140.877 37.0942C140.877 51.4785 131.969 61.0461 118.904 61.0461ZM118.904 53.1941C127.284 53.1941 132.629 46.9917 132.629 37.0942C132.629 27.1306 127.284 20.9282 118.904 20.9282C110.524 20.9282 105.18 27.0647 105.18 37.0942C105.18 47.0577 110.524 53.1941 118.904 53.1941Z" fill="white"/>
<path d="M165.432 26.8667C174.274 26.8667 179.156 34.0589 179.156 43.8245C179.156 54.4478 173.416 60.7162 165.432 60.7162C161.737 60.7162 158.108 59.1986 156.062 56.7572V73.517H148.144V27.5265H156.062V30.7597C158.306 27.9884 161.935 26.8667 165.432 26.8667ZM163.452 53.788C168.731 53.788 171.238 50.0929 171.238 43.7585C171.238 37.3581 168.797 33.795 163.518 33.795C157.778 33.795 155.336 37.9519 155.336 43.7585C155.336 49.4331 157.778 53.788 163.452 53.788Z" fill="white"/>
<path d="M213.616 43.3626C213.616 44.3523 213.55 45.3421 213.418 46.3978H191.115C191.445 50.6867 194.085 53.524 199.231 53.524C202.135 53.524 204.774 52.6003 207.017 50.0269L212.494 54.8437C208.931 58.8027 204.642 60.7162 199.165 60.7162C187.948 60.7162 183.197 52.6662 183.197 43.9564C183.197 35.4446 187.816 26.8667 198.637 26.8667C208.733 26.8667 213.616 34.3228 213.616 43.3626ZM191.049 40.1294H206.028C205.896 35.9724 202.728 33.4651 198.571 33.4651C193.755 33.4651 191.511 36.8962 191.049 40.1294Z" fill="white"/>
<path d="M237.868 26.8667C245.192 26.8667 249.349 31.3536 249.349 39.0737V60.0564H241.431V41.0532C241.431 38.8097 241.431 33.795 235.427 33.795C228.037 33.795 228.037 41.2511 228.037 47.0577V60.0564H220.119V27.5265H228.037V31.2876C230.346 28.1864 233.909 26.8667 237.868 26.8667Z" fill="white"/>
<rect width="78.0486" height="77.0079" rx="15" fill="url(#paint0_linear_940_76)"/>
<path d="M44.7471 48.9106V28.0977H51.1857C58.3296 28.0977 62.4381 31.9198 62.4381 38.6684C62.4381 45.2975 58.4522 48.9106 51.1551 48.9106H44.7471ZM49.5607 44.6107H50.6645C55.0183 44.6107 57.5937 43.5058 57.5937 38.4892C57.5937 33.6518 55.1103 32.3976 51.0938 32.3976H49.5607V44.6107Z" fill="white"/>
<path d="M18.7787 19.2445L31.41 32.0294H13.5293V46.018H31.369L18.7377 58.8029L28.4982 68.6821L38.5048 58.5538V46.018C35.5111 41.8256 35.5111 36.1803 38.5048 31.9878V19.4935L28.4982 9.36523L18.7787 19.2445Z" fill="white"/>
<path d="M286.859 13.7363C300.648 13.7363 305.398 24.4648 305.398 36.7729C305.398 49.081 300.45 59.8094 286.859 59.8094H274.654V13.7363H286.859ZM286.661 54.7414C297.283 54.7414 299.79 45.9217 299.79 36.7729C299.79 27.6241 297.283 18.8044 286.661 18.8044H280.262V54.7414H286.661Z" fill="white"/>
<path d="M327.324 28.2164C338.143 28.2164 342.3 36.0489 341.904 44.342L341.838 45.79L317.626 45.7242C318.088 51.7795 321.518 55.5312 327.852 55.5312C332.272 55.5312 335.109 53.6883 336.428 49.6733L341.046 52.0428C339.067 56.7159 335.175 60.4676 327.654 60.4676C316.372 60.4676 312.084 52.1086 312.084 44.2762C312.084 36.5096 316.24 28.2164 327.324 28.2164ZM327.456 33.1528C321.98 33.1528 318.813 36.1147 317.89 40.9194L336.164 40.9853C335.768 35.5881 332.404 33.1528 327.456 33.1528Z" fill="white"/>
<path d="M368.448 18.0145C363.632 18.0145 362.445 21.1738 362.445 25.123V28.8746H375.441V33.811H362.445V59.8094H356.969V33.811H348.393V28.8746H356.969V24.3989C356.969 17.3563 361.719 13.0781 368.58 13.0781C373.462 13.0781 378.476 15.1843 380.587 20.9106L375.969 23.2142C374.452 20.0549 373.066 18.0145 368.448 18.0145Z" fill="white"/>
<path d="M404.295 13.7363V21.3713H396.642V13.7363H404.295ZM403.701 54.873H415.51V59.8094H386.35V54.873H398.159V33.811H387.67V28.8746H403.635L403.701 54.873Z" fill="white"/>
<path d="M439.548 28.2164C446.541 28.2164 451.159 33.4161 451.159 40.9853L451.093 59.8094H445.617L445.683 42.4333V40.9853C445.683 39.274 445.683 33.1528 438.558 33.1528C430.509 33.1528 429.981 41.0511 429.981 45.79V59.8094H424.704V28.8746H428.068L430.509 32.7579C432.752 29.5986 435.985 28.2164 439.548 28.2164Z" fill="white"/>
<path d="M478.231 13.7363V21.3713H470.578V13.7363H478.231ZM477.637 54.873H489.446V59.8094H460.286V54.873H472.095V33.811H461.606V28.8746H477.571L477.637 54.873Z" fill="white"/>
<path d="M521.796 49.6733L526.414 51.977C524.501 57.44 520.873 60.4676 514.869 60.4676C507.612 60.4676 503.39 56.0578 503.39 48.5544V33.811H495.077V28.8746H503.39V17.8171H508.866V28.8746H524.897V33.811H508.866V47.6988C508.866 50.2657 508.866 55.5312 514.935 55.5312C519.223 55.5312 520.477 52.9643 521.796 49.6733Z" fill="white"/>
<path d="M552.167 13.7363V21.3713H544.514V13.7363H552.167ZM551.573 54.873H563.382V59.8094H534.222V54.873H546.032V33.811H535.542V28.8746H551.507L551.573 54.873Z" fill="white"/>
<path d="M585.77 60.4676C575.347 60.4676 571.059 52.2403 571.059 44.0129C571.059 36.4438 575.347 28.2164 585.77 28.2164C596.194 28.2164 600.482 36.4438 600.482 44.0129C600.482 52.2403 596.194 60.4676 585.77 60.4676ZM585.77 55.5312C591.708 55.5312 595.007 51.253 595.007 44.0129C595.007 37.4311 591.708 33.1528 585.77 33.1528C579.833 33.1528 576.534 37.4311 576.534 44.0129C576.534 51.253 579.833 55.5312 585.77 55.5312Z" fill="white"/>
<path d="M624.388 28.2164C631.381 28.2164 635.999 33.4161 635.999 40.9853L635.933 59.8094H630.457L630.523 42.4333V40.9853C630.523 39.274 630.523 33.1528 623.398 33.1528C615.35 33.1528 614.822 41.0511 614.822 45.79V59.8094H609.544V28.8746H612.909L615.35 32.7579C617.593 29.5986 620.825 28.2164 624.388 28.2164Z" fill="white"/>
<defs>
<linearGradient id="paint0_linear_940_76" x1="78.0486" y1="-2.35746e-06" x2="1.44507e-06" y2="77.0079" gradientUnits="userSpaceOnUse">
<stop offset="0.239583" stop-color="#00D1FF"/>
<stop offset="1" stop-color="#AEFFEC"/>
</linearGradient>
</defs>
</svg>
